<svg width="36" height="36" viewBox="0 0 36 36" fill="none" xmlns="http://www.w3.org/2000/svg">
<rect x="2" y="2" width="32" height="32" rx="16" fill="#F5E5C2"/>
<path d="M19.3332 11.5126V14.2663C19.3332 14.6397 19.3332 14.8264 19.4058 14.969C19.4697 15.0944 19.5717 15.1964 19.6972 15.2603C19.8398 15.333 20.0265 15.333 20.3998 15.333H23.1535M23.3332 16.6585V21.4663C23.3332 22.5864 23.3332 23.1465 23.1152 23.5743C22.9234 23.9506 22.6175 24.2566 22.2412 24.4484C21.8133 24.6663 21.2533 24.6663 20.1332 24.6663H15.8665C14.7464 24.6663 14.1863 24.6663 13.7585 24.4484C13.3822 24.2566 13.0762 23.9506 12.8845 23.5743C12.6665 23.1465 12.6665 22.5864 12.6665 21.4663V14.533C12.6665 13.4129 12.6665 12.8529 12.8845 12.425C13.0762 12.0487 13.3822 11.7427 13.7585 11.551C14.1863 11.333 14.7464 11.333 15.8665 11.333H18.0077C18.4969 11.333 18.7415 11.333 18.9716 11.3883C19.1757 11.4373 19.3708 11.5181 19.5497 11.6277C19.7516 11.7514 19.9245 11.9244 20.2704 12.2703L22.3959 14.3957C22.7418 14.7417 22.9148 14.9146 23.0385 15.1164C23.1481 15.2954 23.2289 15.4905 23.2779 15.6945C23.3332 15.9247 23.3332 16.1693 23.3332 16.6585Z" stroke="#CC9D36" stroke-width="1.33333" stroke-linecap="round" stroke-linejoin="round"/>
<rect x="2" y="2" width="32" height="32" rx="16" stroke="#FCF7EB" stroke-width="4"/>
</svg>
