<svg width="56" height="56" viewBox="0 0 56 56" fill="none" xmlns="http://www.w3.org/2000/svg">
<rect x="4" y="4" width="48" height="48" rx="24" fill="#F5E5C2"/>
<path d="M28 31C29.6569 31 31 29.6569 31 28C31 26.3431 29.6569 25 28 25C26.3431 25 25 26.3431 25 28C25 29.6569 26.3431 31 28 31Z" stroke="#5E4819" stroke-width="2" stroke-linecap="round" stroke-linejoin="round"/>
<path d="M34.7273 30.7273C34.6063 31.0015 34.5702 31.3056 34.6236 31.6005C34.6771 31.8954 34.8177 32.1676 35.0273 32.3818L35.0818 32.4364C35.2509 32.6052 35.385 32.8057 35.4765 33.0265C35.568 33.2472 35.6151 33.4838 35.6151 33.7227C35.6151 33.9617 35.568 34.1983 35.4765 34.419C35.385 34.6397 35.2509 34.8402 35.0818 35.0091C34.913 35.1781 34.7124 35.3122 34.4917 35.4037C34.271 35.4952 34.0344 35.5423 33.7955 35.5423C33.5565 35.5423 33.3199 35.4952 33.0992 35.4037C32.8785 35.3122 32.678 35.1781 32.5091 35.0091L32.4545 34.9545C32.2403 34.745 31.9682 34.6044 31.6733 34.5509C31.3784 34.4974 31.0742 34.5335 30.8 34.6545C30.5311 34.7698 30.3018 34.9611 30.1403 35.205C29.9788 35.4489 29.8921 35.7347 29.8909 36.0273V36.1818C29.8909 36.664 29.6994 37.1265 29.3584 37.4675C29.0174 37.8084 28.5549 38 28.0727 38C27.5905 38 27.1281 37.8084 26.7871 37.4675C26.4461 37.1265 26.2545 36.664 26.2545 36.1818V36.1C26.2475 35.7991 26.1501 35.5073 25.975 35.2625C25.7999 35.0176 25.5552 34.8312 25.2727 34.7273C24.9985 34.6063 24.6944 34.5702 24.3995 34.6236C24.1046 34.6771 23.8324 34.8177 23.6182 35.0273L23.5636 35.0818C23.3948 35.2509 23.1943 35.385 22.9735 35.4765C22.7528 35.568 22.5162 35.6151 22.2773 35.6151C22.0383 35.6151 21.8017 35.568 21.581 35.4765C21.3603 35.385 21.1598 35.2509 20.9909 35.0818C20.8219 34.913 20.6878 34.7124 20.5963 34.4917C20.5048 34.271 20.4577 34.0344 20.4577 33.7955C20.4577 33.5565 20.5048 33.3199 20.5963 33.0992C20.6878 32.8785 20.8219 32.678 20.9909 32.5091L21.0455 32.4545C21.255 32.2403 21.3956 31.9682 21.4491 31.6733C21.5026 31.3784 21.4665 31.0742 21.3455 30.8C21.2302 30.5311 21.0389 30.3018 20.795 30.1403C20.5511 29.9788 20.2653 29.8921 19.9727 29.8909H19.8182C19.336 29.8909 18.8735 29.6994 18.5325 29.3584C18.1916 29.0174 18 28.5549 18 28.0727C18 27.5905 18.1916 27.1281 18.5325 26.7871C18.8735 26.4461 19.336 26.2545 19.8182 26.2545H19.9C20.2009 26.2475 20.4927 26.1501 20.7375 25.975C20.9824 25.7999 21.1688 25.5552 21.2727 25.2727C21.3937 24.9985 21.4298 24.6944 21.3764 24.3995C21.3229 24.1046 21.1823 23.8324 20.9727 23.6182L20.9182 23.5636C20.7491 23.3948 20.615 23.1943 20.5235 22.9735C20.432 22.7528 20.3849 22.5162 20.3849 22.2773C20.3849 22.0383 20.432 21.8017 20.5235 21.581C20.615 21.3603 20.7491 21.1598 20.9182 20.9909C21.087 20.8219 21.2876 20.6878 21.5083 20.5963C21.729 20.5048 21.9656 20.4577 22.2045 20.4577C22.4435 20.4577 22.6801 20.5048 22.9008 20.5963C23.1215 20.6878 23.322 20.8219 23.4909 20.9909L23.5455 21.0455C23.7597 21.255 24.0318 21.3956 24.3267 21.4491C24.6216 21.5026 24.9258 21.4665 25.2 21.3455H25.2727C25.5416 21.2302 25.7709 21.0389 25.9324 20.795C26.094 20.5511 26.1807 20.2653 26.1818 19.9727V19.8182C26.1818 19.336 26.3734 18.8735 26.7144 18.5325C27.0553 18.1916 27.5178 18 28 18C28.4822 18 28.9447 18.1916 29.2856 18.5325C29.6266 18.8735 29.8182 19.336 29.8182 19.8182V19.9C29.8193 20.1925 29.906 20.4783 30.0676 20.7222C30.2291 20.9661 30.4584 21.1575 30.7273 21.2727C31.0015 21.3937 31.3056 21.4298 31.6005 21.3764C31.8954 21.3229 32.1676 21.1823 32.3818 20.9727L32.4364 20.9182C32.6052 20.7491 32.8057 20.615 33.0265 20.5235C33.2472 20.432 33.4838 20.3849 33.7227 20.3849C33.9617 20.3849 34.1983 20.432 34.419 20.5235C34.6397 20.615 34.8402 20.7491 35.0091 20.9182C35.1781 21.087 35.3122 21.2876 35.4037 21.5083C35.4952 21.729 35.5423 21.9656 35.5423 22.2045C35.5423 22.4435 35.4952 22.6801 35.4037 22.9008C35.3122 23.1215 35.1781 23.322 35.0091 23.4909L34.9545 23.5455C34.745 23.7597 34.6044 24.0318 34.5509 24.3267C34.4974 24.6216 34.5335 24.9258 34.6545 25.2V25.2727C34.7698 25.5416 34.9611 25.7709 35.205 25.9324C35.4489 26.094 35.7347 26.1807 36.0273 26.1818H36.1818C36.664 26.1818 37.1265 26.3734 37.4675 26.7144C37.8084 27.0553 38 27.5178 38 28C38 28.4822 37.8084 28.9447 37.4675 29.2856C37.1265 29.6266 36.664 29.8182 36.1818 29.8182H36.1C35.8075 29.8193 35.5217 29.906 35.2778 30.0676C35.0339 30.2291 34.8425 30.4584 34.7273 30.7273Z" stroke="#5E4819" stroke-width="2" stroke-linecap="round" stroke-linejoin="round"/>
<rect x="4" y="4" width="48" height="48" rx="24" stroke="#FCF7EB" stroke-width="8"/>
</svg>
