<svg width="56" height="56" viewBox="0 0 56 56" fill="none" xmlns="http://www.w3.org/2000/svg">
<rect x="4" y="4" width="48" height="48" rx="24" fill="#F5E5C2"/>
<path d="M26 33.6586V36C26 37.1046 26.8954 38 28 38C29.1046 38 30 37.1046 30 36V33.6586M28 18V19M19 28H18M21.5 21.5L20.8999 20.8999M34.5 21.5L35.1002 20.8999M38 28H37M34 28C34 31.3137 31.3137 34 28 34C24.6863 34 22 31.3137 22 28C22 24.6863 24.6863 22 28 22C31.3137 22 34 24.6863 34 28Z" stroke="#5E4819" stroke-width="2" stroke-linecap="round" stroke-linejoin="round"/>
<rect x="4" y="4" width="48" height="48" rx="24" stroke="#FCF7EB" stroke-width="8"/>
</svg>
